<mxfile host="app.diagrams.net" agent="Mozilla/5.0 (Windows NT 10.0; Win64; x64) AppleWebKit/537.36 (KHTML, like Gecko) Chrome/131.0.0.0 Safari/537.36" version="24.8.8">
  <diagram name="Side-1" id="zTILtFQrg7cp_qfHyNrn">
    <mxGraphModel dx="989" dy="538" grid="1" gridSize="5" guides="1" tooltips="1" connect="1" arrows="1" fold="1" page="1" pageScale="1" pageWidth="827" pageHeight="1169" math="0" shadow="0">
      <root>
        <mxCell id="0" />
        <mxCell id="1" parent="0" />
        <mxCell id="kMA8ejjiGqVisvwYChEG-2" value="" style="rounded=0;whiteSpace=wrap;html=1;" vertex="1" parent="1">
          <mxGeometry x="119.97" y="120" width="80" height="100" as="geometry" />
        </mxCell>
        <mxCell id="kMA8ejjiGqVisvwYChEG-4" value="Clear" style="text;html=1;align=center;verticalAlign=middle;whiteSpace=wrap;rounded=0;" vertex="1" parent="1">
          <mxGeometry x="139.97" y="200" width="40" height="20" as="geometry" />
        </mxCell>
        <mxCell id="kMA8ejjiGqVisvwYChEG-6" value="D" style="text;html=1;align=center;verticalAlign=middle;whiteSpace=wrap;rounded=0;" vertex="1" parent="1">
          <mxGeometry x="119.97" y="130" width="20" height="20" as="geometry" />
        </mxCell>
        <mxCell id="kMA8ejjiGqVisvwYChEG-7" value="CLK" style="text;html=1;align=center;verticalAlign=middle;whiteSpace=wrap;rounded=0;" vertex="1" parent="1">
          <mxGeometry x="119.97" y="170" width="30" height="20" as="geometry" />
        </mxCell>
        <mxCell id="kMA8ejjiGqVisvwYChEG-9" value="Q" style="text;html=1;align=center;verticalAlign=middle;whiteSpace=wrap;rounded=0;" vertex="1" parent="1">
          <mxGeometry x="179.97" y="130" width="20" height="20" as="geometry" />
        </mxCell>
        <mxCell id="kMA8ejjiGqVisvwYChEG-26" style="edgeStyle=orthogonalEdgeStyle;rounded=0;orthogonalLoop=1;jettySize=auto;html=1;entryX=0;entryY=0.5;entryDx=0;entryDy=0;" edge="1" parent="1" source="kMA8ejjiGqVisvwYChEG-10" target="kMA8ejjiGqVisvwYChEG-15">
          <mxGeometry relative="1" as="geometry" />
        </mxCell>
        <mxCell id="kMA8ejjiGqVisvwYChEG-28" style="edgeStyle=orthogonalEdgeStyle;rounded=0;orthogonalLoop=1;jettySize=auto;html=1;entryX=0;entryY=0.5;entryDx=0;entryDy=0;" edge="1" parent="1" source="kMA8ejjiGqVisvwYChEG-10" target="kMA8ejjiGqVisvwYChEG-6">
          <mxGeometry relative="1" as="geometry">
            <Array as="points">
              <mxPoint x="240" y="180" />
              <mxPoint x="240" y="60" />
              <mxPoint x="100" y="60" />
              <mxPoint x="100" y="140" />
            </Array>
          </mxGeometry>
        </mxCell>
        <mxCell id="kMA8ejjiGqVisvwYChEG-10" value="nQ" style="text;html=1;align=center;verticalAlign=middle;whiteSpace=wrap;rounded=0;" vertex="1" parent="1">
          <mxGeometry x="169.97" y="170" width="30" height="20" as="geometry" />
        </mxCell>
        <mxCell id="kMA8ejjiGqVisvwYChEG-11" value="Pre" style="text;html=1;align=center;verticalAlign=middle;whiteSpace=wrap;rounded=0;" vertex="1" parent="1">
          <mxGeometry x="149.97" y="120" width="20" height="20" as="geometry" />
        </mxCell>
        <mxCell id="kMA8ejjiGqVisvwYChEG-12" value="" style="rounded=0;whiteSpace=wrap;html=1;" vertex="1" parent="1">
          <mxGeometry x="319.97" y="120" width="80" height="100" as="geometry" />
        </mxCell>
        <mxCell id="kMA8ejjiGqVisvwYChEG-13" value="Clear" style="text;html=1;align=center;verticalAlign=middle;whiteSpace=wrap;rounded=0;" vertex="1" parent="1">
          <mxGeometry x="339.97" y="200" width="40" height="20" as="geometry" />
        </mxCell>
        <mxCell id="kMA8ejjiGqVisvwYChEG-14" value="D" style="text;html=1;align=center;verticalAlign=middle;whiteSpace=wrap;rounded=0;" vertex="1" parent="1">
          <mxGeometry x="319.97" y="130" width="20" height="20" as="geometry" />
        </mxCell>
        <mxCell id="kMA8ejjiGqVisvwYChEG-15" value="CLK" style="text;html=1;align=center;verticalAlign=middle;whiteSpace=wrap;rounded=0;" vertex="1" parent="1">
          <mxGeometry x="319.97" y="170" width="30" height="20" as="geometry" />
        </mxCell>
        <mxCell id="kMA8ejjiGqVisvwYChEG-16" value="Q" style="text;html=1;align=center;verticalAlign=middle;whiteSpace=wrap;rounded=0;" vertex="1" parent="1">
          <mxGeometry x="379.97" y="130" width="20" height="20" as="geometry" />
        </mxCell>
        <mxCell id="kMA8ejjiGqVisvwYChEG-29" style="edgeStyle=orthogonalEdgeStyle;rounded=0;orthogonalLoop=1;jettySize=auto;html=1;entryX=0;entryY=0.5;entryDx=0;entryDy=0;" edge="1" parent="1" source="kMA8ejjiGqVisvwYChEG-17" target="kMA8ejjiGqVisvwYChEG-14">
          <mxGeometry relative="1" as="geometry">
            <mxPoint x="439.97" y="180" as="targetPoint" />
            <Array as="points">
              <mxPoint x="440" y="180" />
              <mxPoint x="440" y="60" />
              <mxPoint x="300" y="60" />
              <mxPoint x="300" y="140" />
            </Array>
          </mxGeometry>
        </mxCell>
        <mxCell id="kMA8ejjiGqVisvwYChEG-30" style="edgeStyle=orthogonalEdgeStyle;rounded=0;orthogonalLoop=1;jettySize=auto;html=1;" edge="1" parent="1" source="kMA8ejjiGqVisvwYChEG-17" target="kMA8ejjiGqVisvwYChEG-22">
          <mxGeometry relative="1" as="geometry" />
        </mxCell>
        <mxCell id="kMA8ejjiGqVisvwYChEG-17" value="nQ" style="text;html=1;align=center;verticalAlign=middle;whiteSpace=wrap;rounded=0;" vertex="1" parent="1">
          <mxGeometry x="369.97" y="170" width="30" height="20" as="geometry" />
        </mxCell>
        <mxCell id="kMA8ejjiGqVisvwYChEG-18" value="Pre" style="text;html=1;align=center;verticalAlign=middle;whiteSpace=wrap;rounded=0;" vertex="1" parent="1">
          <mxGeometry x="349.97" y="120" width="20" height="20" as="geometry" />
        </mxCell>
        <mxCell id="kMA8ejjiGqVisvwYChEG-19" value="" style="rounded=0;whiteSpace=wrap;html=1;" vertex="1" parent="1">
          <mxGeometry x="519.97" y="120" width="80" height="100" as="geometry" />
        </mxCell>
        <mxCell id="kMA8ejjiGqVisvwYChEG-20" value="Clear" style="text;html=1;align=center;verticalAlign=middle;whiteSpace=wrap;rounded=0;" vertex="1" parent="1">
          <mxGeometry x="539.97" y="200" width="40" height="20" as="geometry" />
        </mxCell>
        <mxCell id="kMA8ejjiGqVisvwYChEG-21" value="D" style="text;html=1;align=center;verticalAlign=middle;whiteSpace=wrap;rounded=0;" vertex="1" parent="1">
          <mxGeometry x="519.97" y="130" width="20" height="20" as="geometry" />
        </mxCell>
        <mxCell id="kMA8ejjiGqVisvwYChEG-22" value="CLK" style="text;html=1;align=center;verticalAlign=middle;whiteSpace=wrap;rounded=0;" vertex="1" parent="1">
          <mxGeometry x="519.97" y="170" width="30" height="20" as="geometry" />
        </mxCell>
        <mxCell id="kMA8ejjiGqVisvwYChEG-23" value="Q" style="text;html=1;align=center;verticalAlign=middle;whiteSpace=wrap;rounded=0;" vertex="1" parent="1">
          <mxGeometry x="579.97" y="130" width="20" height="20" as="geometry" />
        </mxCell>
        <mxCell id="kMA8ejjiGqVisvwYChEG-31" style="edgeStyle=orthogonalEdgeStyle;rounded=0;orthogonalLoop=1;jettySize=auto;html=1;entryX=0;entryY=0.5;entryDx=0;entryDy=0;" edge="1" parent="1" source="kMA8ejjiGqVisvwYChEG-24" target="kMA8ejjiGqVisvwYChEG-21">
          <mxGeometry relative="1" as="geometry">
            <Array as="points">
              <mxPoint x="640" y="180" />
              <mxPoint x="640" y="60" />
              <mxPoint x="500" y="60" />
              <mxPoint x="500" y="140" />
            </Array>
          </mxGeometry>
        </mxCell>
        <mxCell id="kMA8ejjiGqVisvwYChEG-24" value="nQ" style="text;html=1;align=center;verticalAlign=middle;whiteSpace=wrap;rounded=0;" vertex="1" parent="1">
          <mxGeometry x="569.97" y="170" width="30" height="20" as="geometry" />
        </mxCell>
        <mxCell id="kMA8ejjiGqVisvwYChEG-25" value="Pre" style="text;html=1;align=center;verticalAlign=middle;whiteSpace=wrap;rounded=0;" vertex="1" parent="1">
          <mxGeometry x="549.97" y="120" width="20" height="20" as="geometry" />
        </mxCell>
        <mxCell id="kMA8ejjiGqVisvwYChEG-35" style="edgeStyle=orthogonalEdgeStyle;rounded=0;orthogonalLoop=1;jettySize=auto;html=1;entryX=0.5;entryY=1;entryDx=0;entryDy=0;" edge="1" parent="1" source="kMA8ejjiGqVisvwYChEG-32" target="kMA8ejjiGqVisvwYChEG-20">
          <mxGeometry relative="1" as="geometry">
            <Array as="points">
              <mxPoint x="800" y="30" />
              <mxPoint x="800" y="250" />
              <mxPoint x="560" y="250" />
            </Array>
          </mxGeometry>
        </mxCell>
        <mxCell id="kMA8ejjiGqVisvwYChEG-36" style="edgeStyle=orthogonalEdgeStyle;rounded=0;orthogonalLoop=1;jettySize=auto;html=1;entryX=0.5;entryY=1;entryDx=0;entryDy=0;" edge="1" parent="1" source="kMA8ejjiGqVisvwYChEG-32" target="kMA8ejjiGqVisvwYChEG-13">
          <mxGeometry relative="1" as="geometry">
            <Array as="points">
              <mxPoint x="800" y="30" />
              <mxPoint x="800" y="250" />
              <mxPoint x="360" y="250" />
            </Array>
          </mxGeometry>
        </mxCell>
        <mxCell id="kMA8ejjiGqVisvwYChEG-37" style="edgeStyle=orthogonalEdgeStyle;rounded=0;orthogonalLoop=1;jettySize=auto;html=1;entryX=0.5;entryY=1;entryDx=0;entryDy=0;" edge="1" parent="1" source="kMA8ejjiGqVisvwYChEG-32" target="kMA8ejjiGqVisvwYChEG-4">
          <mxGeometry relative="1" as="geometry">
            <Array as="points">
              <mxPoint x="800" y="30" />
              <mxPoint x="800" y="250" />
              <mxPoint x="160" y="250" />
            </Array>
          </mxGeometry>
        </mxCell>
        <mxCell id="kMA8ejjiGqVisvwYChEG-32" value="" style="verticalLabelPosition=bottom;shadow=0;dashed=0;align=center;html=1;verticalAlign=top;shape=mxgraph.electrical.logic_gates.logic_gate;operation=and;direction=east;" vertex="1" parent="1">
          <mxGeometry x="680" width="100" height="60" as="geometry" />
        </mxCell>
        <mxCell id="kMA8ejjiGqVisvwYChEG-33" style="edgeStyle=orthogonalEdgeStyle;rounded=0;orthogonalLoop=1;jettySize=auto;html=1;entryX=0;entryY=0.25;entryDx=0;entryDy=0;entryPerimeter=0;" edge="1" parent="1" source="kMA8ejjiGqVisvwYChEG-9" target="kMA8ejjiGqVisvwYChEG-32">
          <mxGeometry relative="1" as="geometry">
            <Array as="points">
              <mxPoint x="220" y="140" />
              <mxPoint x="220" y="15" />
            </Array>
          </mxGeometry>
        </mxCell>
        <mxCell id="kMA8ejjiGqVisvwYChEG-34" style="edgeStyle=orthogonalEdgeStyle;rounded=0;orthogonalLoop=1;jettySize=auto;html=1;entryX=0;entryY=0.75;entryDx=0;entryDy=0;entryPerimeter=0;" edge="1" parent="1" source="kMA8ejjiGqVisvwYChEG-23" target="kMA8ejjiGqVisvwYChEG-32">
          <mxGeometry relative="1" as="geometry">
            <Array as="points">
              <mxPoint x="620" y="140" />
              <mxPoint x="620" y="45" />
            </Array>
          </mxGeometry>
        </mxCell>
        <mxCell id="kMA8ejjiGqVisvwYChEG-38" value="" style="rounded=0;whiteSpace=wrap;html=1;" vertex="1" parent="1">
          <mxGeometry x="600" y="340" width="80" height="100" as="geometry" />
        </mxCell>
        <mxCell id="kMA8ejjiGqVisvwYChEG-39" value="Clear" style="text;html=1;align=center;verticalAlign=middle;whiteSpace=wrap;rounded=0;" vertex="1" parent="1">
          <mxGeometry x="620" y="420" width="40" height="20" as="geometry" />
        </mxCell>
        <mxCell id="kMA8ejjiGqVisvwYChEG-40" value="D" style="text;html=1;align=center;verticalAlign=middle;whiteSpace=wrap;rounded=0;" vertex="1" parent="1">
          <mxGeometry x="600" y="350" width="20" height="20" as="geometry" />
        </mxCell>
        <mxCell id="kMA8ejjiGqVisvwYChEG-41" value="CLK" style="text;html=1;align=center;verticalAlign=middle;whiteSpace=wrap;rounded=0;" vertex="1" parent="1">
          <mxGeometry x="600" y="390" width="30" height="20" as="geometry" />
        </mxCell>
        <mxCell id="kMA8ejjiGqVisvwYChEG-47" style="edgeStyle=orthogonalEdgeStyle;rounded=0;orthogonalLoop=1;jettySize=auto;html=1;" edge="1" parent="1" source="kMA8ejjiGqVisvwYChEG-42">
          <mxGeometry relative="1" as="geometry">
            <mxPoint x="749.9999999999998" y="360" as="targetPoint" />
          </mxGeometry>
        </mxCell>
        <mxCell id="kMA8ejjiGqVisvwYChEG-42" value="Q" style="text;html=1;align=center;verticalAlign=middle;whiteSpace=wrap;rounded=0;" vertex="1" parent="1">
          <mxGeometry x="660" y="350" width="20" height="20" as="geometry" />
        </mxCell>
        <mxCell id="kMA8ejjiGqVisvwYChEG-45" style="edgeStyle=orthogonalEdgeStyle;rounded=0;orthogonalLoop=1;jettySize=auto;html=1;entryX=0;entryY=0.5;entryDx=0;entryDy=0;" edge="1" parent="1" source="kMA8ejjiGqVisvwYChEG-43" target="kMA8ejjiGqVisvwYChEG-40">
          <mxGeometry relative="1" as="geometry">
            <Array as="points">
              <mxPoint x="720" y="400" />
              <mxPoint x="720" y="280" />
              <mxPoint x="580" y="280" />
              <mxPoint x="580" y="360" />
            </Array>
          </mxGeometry>
        </mxCell>
        <mxCell id="kMA8ejjiGqVisvwYChEG-43" value="nQ" style="text;html=1;align=center;verticalAlign=middle;whiteSpace=wrap;rounded=0;" vertex="1" parent="1">
          <mxGeometry x="650" y="390" width="30" height="20" as="geometry" />
        </mxCell>
        <mxCell id="kMA8ejjiGqVisvwYChEG-44" value="Pre" style="text;html=1;align=center;verticalAlign=middle;whiteSpace=wrap;rounded=0;" vertex="1" parent="1">
          <mxGeometry x="630" y="340" width="20" height="20" as="geometry" />
        </mxCell>
        <mxCell id="kMA8ejjiGqVisvwYChEG-50" style="edgeStyle=orthogonalEdgeStyle;rounded=0;orthogonalLoop=1;jettySize=auto;html=1;entryX=0.5;entryY=0;entryDx=0;entryDy=0;" edge="1" parent="1" source="kMA8ejjiGqVisvwYChEG-49" target="kMA8ejjiGqVisvwYChEG-11">
          <mxGeometry relative="1" as="geometry" />
        </mxCell>
        <mxCell id="kMA8ejjiGqVisvwYChEG-49" value="&#39;0&#39;" style="text;html=1;align=center;verticalAlign=middle;whiteSpace=wrap;rounded=0;" vertex="1" parent="1">
          <mxGeometry x="149.97" y="80" width="20" height="20" as="geometry" />
        </mxCell>
        <mxCell id="kMA8ejjiGqVisvwYChEG-53" style="edgeStyle=orthogonalEdgeStyle;rounded=0;orthogonalLoop=1;jettySize=auto;html=1;entryX=0.5;entryY=0;entryDx=0;entryDy=0;" edge="1" parent="1" source="kMA8ejjiGqVisvwYChEG-54">
          <mxGeometry relative="1" as="geometry">
            <mxPoint x="360" y="120" as="targetPoint" />
          </mxGeometry>
        </mxCell>
        <mxCell id="kMA8ejjiGqVisvwYChEG-54" value="&#39;0&#39;" style="text;html=1;align=center;verticalAlign=middle;whiteSpace=wrap;rounded=0;" vertex="1" parent="1">
          <mxGeometry x="349.97" y="80" width="20" height="20" as="geometry" />
        </mxCell>
        <mxCell id="kMA8ejjiGqVisvwYChEG-55" style="edgeStyle=orthogonalEdgeStyle;rounded=0;orthogonalLoop=1;jettySize=auto;html=1;entryX=0.5;entryY=0;entryDx=0;entryDy=0;" edge="1" parent="1" source="kMA8ejjiGqVisvwYChEG-56">
          <mxGeometry relative="1" as="geometry">
            <mxPoint x="560" y="120" as="targetPoint" />
          </mxGeometry>
        </mxCell>
        <mxCell id="kMA8ejjiGqVisvwYChEG-56" value="&#39;0&#39;" style="text;html=1;align=center;verticalAlign=middle;whiteSpace=wrap;rounded=0;" vertex="1" parent="1">
          <mxGeometry x="549.97" y="80" width="20" height="20" as="geometry" />
        </mxCell>
        <mxCell id="kMA8ejjiGqVisvwYChEG-57" style="edgeStyle=orthogonalEdgeStyle;rounded=0;orthogonalLoop=1;jettySize=auto;html=1;entryX=0.5;entryY=0;entryDx=0;entryDy=0;" edge="1" parent="1" source="kMA8ejjiGqVisvwYChEG-58">
          <mxGeometry relative="1" as="geometry">
            <mxPoint x="640.03" y="340" as="targetPoint" />
          </mxGeometry>
        </mxCell>
        <mxCell id="kMA8ejjiGqVisvwYChEG-58" value="&#39;0&#39;" style="text;html=1;align=center;verticalAlign=middle;whiteSpace=wrap;rounded=0;" vertex="1" parent="1">
          <mxGeometry x="630" y="300" width="20" height="20" as="geometry" />
        </mxCell>
        <mxCell id="kMA8ejjiGqVisvwYChEG-61" style="edgeStyle=orthogonalEdgeStyle;rounded=0;orthogonalLoop=1;jettySize=auto;html=1;entryX=0.5;entryY=1;entryDx=0;entryDy=0;" edge="1" parent="1" source="kMA8ejjiGqVisvwYChEG-60" target="kMA8ejjiGqVisvwYChEG-39">
          <mxGeometry relative="1" as="geometry" />
        </mxCell>
        <mxCell id="kMA8ejjiGqVisvwYChEG-60" value="&#39;0&#39;" style="text;html=1;align=center;verticalAlign=middle;whiteSpace=wrap;rounded=0;" vertex="1" parent="1">
          <mxGeometry x="630" y="460" width="20" height="20" as="geometry" />
        </mxCell>
        <mxCell id="kMA8ejjiGqVisvwYChEG-64" style="edgeStyle=orthogonalEdgeStyle;rounded=0;orthogonalLoop=1;jettySize=auto;html=1;" edge="1" parent="1" source="kMA8ejjiGqVisvwYChEG-63" target="kMA8ejjiGqVisvwYChEG-7">
          <mxGeometry relative="1" as="geometry" />
        </mxCell>
        <mxCell id="kMA8ejjiGqVisvwYChEG-63" value="200 MHz" style="text;html=1;align=center;verticalAlign=middle;whiteSpace=wrap;rounded=0;" vertex="1" parent="1">
          <mxGeometry x="20" y="170" width="70" height="20" as="geometry" />
        </mxCell>
        <mxCell id="kMA8ejjiGqVisvwYChEG-65" value="20 MHz" style="text;html=1;align=center;verticalAlign=middle;whiteSpace=wrap;rounded=0;" vertex="1" parent="1">
          <mxGeometry x="750" y="350" width="60" height="20" as="geometry" />
        </mxCell>
        <mxCell id="kMA8ejjiGqVisvwYChEG-71" style="edgeStyle=orthogonalEdgeStyle;rounded=0;orthogonalLoop=1;jettySize=auto;html=1;entryX=0;entryY=0.5;entryDx=0;entryDy=0;" edge="1" parent="1" source="kMA8ejjiGqVisvwYChEG-67" target="kMA8ejjiGqVisvwYChEG-41">
          <mxGeometry relative="1" as="geometry">
            <Array as="points">
              <mxPoint x="560" y="400" />
            </Array>
          </mxGeometry>
        </mxCell>
        <mxCell id="kMA8ejjiGqVisvwYChEG-67" value="" style="ellipse;whiteSpace=wrap;html=1;aspect=fixed;fillColor=#000000;" vertex="1" parent="1">
          <mxGeometry x="557.48" y="247.52" width="4.97" height="4.97" as="geometry" />
        </mxCell>
        <mxCell id="kMA8ejjiGqVisvwYChEG-69" value="" style="ellipse;whiteSpace=wrap;html=1;aspect=fixed;fillColor=#000000;" vertex="1" parent="1">
          <mxGeometry x="357.49" y="247.52" width="4.97" height="4.97" as="geometry" />
        </mxCell>
      </root>
    </mxGraphModel>
  </diagram>
</mxfile>
